<svg id="_01-Forklift" data-name="01-Forklift" xmlns="http://www.w3.org/2000/svg" viewBox="0 0 64 64"><defs><style>.cls-1{fill:#7c828d;}.cls-2{fill:#ffd7a3;}.cls-3{fill:#fdc88e;}.cls-4{fill:#6e6e79;}.cls-5{fill:#4ea0ca;}.cls-6{fill:#545465;}.cls-7{fill:#ffd24f;}.cls-8{fill:#b5e0f0;}.cls-9{fill:#b8453d;}.cls-10{fill:#29394a;}</style></defs><title>01-Forklift</title><rect class="cls-1" x="51" y="46" width="12" height="3"/><polygon class="cls-2" points="63 34 63 46 51 46 51 34 55 34 55 40 59 40 59 34 63 34"/><polygon class="cls-3" points="63 22 63 34 59 34 55 34 51 34 51 22 55 22 55 28 59 28 59 22 63 22"/><rect class="cls-1" x="55" y="34" width="4" height="6"/><rect class="cls-1" x="55" y="22" width="4" height="6"/><path class="cls-4" d="M51,49v3H48l-.08-.01A5.365,5.365,0,0,0,48,51a6.958,6.958,0,0,0-2.05-4.95L46,46V39h2l-1-3-1-.2V6h5V49Z"/><path class="cls-5" d="M43,35.19l3,.61,1,.2,1,3H40s-7.37,4.42-9.45,12H17.51l-1.05-8.63A2.009,2.009,0,0,0,14.56,41H3a2.006,2.006,0,0,1-2-2,20.427,20.427,0,0,1,1.5-6.5C3.25,30.5,4,29,4,29h9.79a3.994,3.994,0,0,1,3.91,3.13L19,38h1.12a3.987,3.987,0,0,1,3.46,2,4.5,4.5,0,0,1,.33.74L25,44h5l2.8-4,3.46-4.95a2.465,2.465,0,0,1,.38-.41,1.991,1.991,0,0,1,1.62-.41Z"/><path class="cls-4" d="M34.68,54A6.844,6.844,0,0,1,34,51a7,7,0,1,1,14,0,5.365,5.365,0,0,1-.08.99A6.991,6.991,0,0,1,34.68,54ZM44,51a3,3,0,1,0-3,3A3,3,0,0,0,44,51Z"/><path class="cls-6" d="M30.55,51C32.63,43.42,40,39,40,39h6v7l-.05.05A7,7,0,0,0,34,51a6.844,6.844,0,0,0,.68,3H30.04A13.832,13.832,0,0,1,30.55,51Z"/><polygon class="cls-1" points="46 8 46 15 43 15 42 15 42 8 46 8"/><circle class="cls-7" cx="41" cy="51" r="3"/><path class="cls-4" d="M34.5,27.5,37,25l4.63,4.63L43,35v.19l-4.74-.96a1.991,1.991,0,0,0-1.62.41L32,30Z"/><path class="cls-6" d="M32.8,40,30,44H25l-1.09-3.26a4.5,4.5,0,0,0-.33-.74H32.8Z"/><path class="cls-8" d="M30.04,54c-.03.33-.04.66-.04,1H18l-.12-1-.37-3H30.55A13.832,13.832,0,0,0,30.04,54Z"/><path class="cls-9" d="M27,34v6H23.58a3.987,3.987,0,0,0-3.46-2H19l-1.3-5.87A4.014,4.014,0,0,0,16,29.66V23s5,0,5,7v2h4A2.006,2.006,0,0,1,27,34Z"/><path class="cls-6" d="M17.51,51l.37,3H14.32A6.844,6.844,0,0,0,15,51a7,7,0,0,0-7-7,6.908,6.908,0,0,0-2,.29V41h8.56a2.009,2.009,0,0,1,1.9,1.37Z"/><path class="cls-4" d="M14.32,54A6.992,6.992,0,1,1,15,51,6.844,6.844,0,0,1,14.32,54ZM11,51a3,3,0,1,0-3,3A3,3,0,0,0,11,51Z"/><polygon class="cls-8" points="12 10 12 29 8 29 10 10 12 10"/><circle class="cls-7" cx="8" cy="51" r="3"/><path class="cls-10" d="M8,47a4,4,0,1,0,4,4A4,4,0,0,0,8,47Zm0,6a2,2,0,1,1,2-2A2,2,0,0,1,8,53Z"/><path class="cls-10" d="M41,47a4,4,0,1,0,4,4A4,4,0,0,0,41,47Zm0,6a2,2,0,1,1,2-2A2,2,0,0,1,41,53Z"/><path class="cls-10" d="M63,21H52V6a1,1,0,0,0-1-1H46a1,1,0,0,0-1,1V7H42a1,1,0,0,0-1,1v7a1,1,0,0,0,1,1V27.056L39.275,16.4A11,11,0,0,0,28.88,9H7v2H8.889L7.1,28H4a1,1,0,0,0-.895.553c-.031.063-.782,1.57-1.542,3.6A20.617,20.617,0,0,0,0,39a3,3,0,0,0,3,3H5v1.608A7.923,7.923,0,0,0,0,51a8.009,8.009,0,0,0,8,8,7.9,7.9,0,0,0,6.9-4h2.091l.014.119A1,1,0,0,0,18,56H30a1,1,0,0,0,1-1h3.1A7.9,7.9,0,0,0,41,59a8.014,8.014,0,0,0,7.734-6H51a1,1,0,0,0,1-1V50H63a1,1,0,0,0,1-1V22A1,1,0,0,0,63,21ZM52,35h2v5a1,1,0,0,0,1,1h4a1,1,0,0,0,1-1V35h2V45H52Zm4,0h2v4H56Zm-4-2V23h2v5a1,1,0,0,0,1,1h4a1,1,0,0,0,1-1V23h2V33Zm4-10h2v4H56ZM45,44.077A7.981,7.981,0,0,0,33.262,53h-2.1a13.218,13.218,0,0,1,.355-1.735C33.262,44.9,39.076,40.8,40.292,40H45ZM43,9h2v5H43Zm2,7V34.575l-1-.2V16ZM36.828,33.414,33.414,30,37,26.414l3.726,3.726.962,3.764-3.242-.656A2.987,2.987,0,0,0,36.828,33.414Zm.533-16.436,2.394,9.363-2.048-2.048a1,1,0,0,0-1.414,0L34.5,26.086,32.414,24l2.293-2.293-1.414-1.414-6,6,1.414,1.414L31,25.414,33.086,27.5l-1.793,1.793a1,1,0,0,0,0,1.414L35.285,34.7,32.277,39H28V34a3,3,0,0,0-3-3H22V30c0-7.909-5.94-8-6-8a1,1,0,0,0-1,1v5.159A5.008,5.008,0,0,0,13.79,28H13V11H28.88A8.979,8.979,0,0,1,37.361,16.978ZM21,33h4a1,1,0,0,1,1,1v5H24.112a5,5,0,0,0-3.992-2H19.8l-1.126-5.086A4.963,4.963,0,0,0,17,29.191V24.2c1.187.418,3,1.725,3,5.8v2A1,1,0,0,0,21,33Zm9.878,8-1.4,2H25.72l-.668-2ZM10.9,11H11V28H9.111ZM2,39a19.014,19.014,0,0,1,1.437-6.149C3.893,31.634,4.353,30.6,4.631,30H13.79a2.995,2.995,0,0,1,2.934,2.346l1.3,5.87A1,1,0,0,0,19,39h1.12a2.991,2.991,0,0,1,2.589,1.492,3.467,3.467,0,0,1,.253.565l1.09,3.26A1,1,0,0,0,25,45h5a1,1,0,0,0,.819-.427l6.246-8.93a1.394,1.394,0,0,1,.209-.229.986.986,0,0,1,.788-.2l8.173,1.657L46.613,38H40a.991.991,0,0,0-.514.143c-.3.182-7.263,4.444-9.664,11.857H18.4l-.946-7.75a1.014,1.014,0,0,0-.047-.2A3.012,3.012,0,0,0,14.56,40H3A1,1,0,0,1,2,39ZM13.419,53.565l0,.008A5.937,5.937,0,0,1,8,57,6,6,0,0,1,6.289,45.248,5.891,5.891,0,0,1,8,45a6.006,6.006,0,0,1,6,6A5.834,5.834,0,0,1,13.419,53.565ZM15.738,53A7.921,7.921,0,0,0,16,51a8.009,8.009,0,0,0-8-8,8.088,8.088,0,0,0-1,.072V42h7.56a1.011,1.011,0,0,1,.922.612L16.749,53Zm13.3,1H18.887l-.244-2H29.3a14.756,14.756,0,0,0-.257,1.926Zm17.9-2.194-.008.048A6,6,0,0,1,41,57a5.938,5.938,0,0,1-5.419-3.435A5.834,5.834,0,0,1,35,51a6,6,0,1,1,12,0A4.334,4.334,0,0,1,46.937,51.806ZM50,51H49a7.933,7.933,0,0,0-2-5.279V40h1a1,1,0,0,0,.949-1.316l-1-3a1,1,0,0,0-.753-.664l-.2-.04V7h3V51Zm2-3V47H62v1Z"/></svg>