<?xml version="1.0" encoding="utf-8"?>
<!-- Generator: Adobe Illustrator 16.0.3, SVG Export Plug-In . SVG Version: 6.00 Build 0)  -->
<!DOCTYPE svg PUBLIC "-//W3C//DTD SVG 1.1//EN" "http://www.w3.org/Graphics/SVG/1.1/DTD/svg11.dtd">
<svg version="1.1" id="圖層_1" xmlns="http://www.w3.org/2000/svg" xmlns:xlink="http://www.w3.org/1999/xlink" x="0px" y="0px"
	 width="149.83px" height="45px" viewBox="137.647 141.177 149.83 45" enable-background="new 137.647 141.177 149.83 45"
	 xml:space="preserve">
<g>
	<title>台灣精品首頁</title>
	<g>
		<path fill="#E72410" d="M181.113,163.063v-6.443c-2.147,0-4.397-0.307-6.545-0.716c-0.614,2.045-1.022,4.193-1.125,6.341
			C175.897,162.756,178.454,163.063,181.113,163.063z"/>
		<path fill="#E72410" d="M154.829,141.177l-5.625,3.273c3.784,6.545,9.409,11.863,16.364,15.136
			c0.307-2.25,0.716-4.398,1.432-6.545C161.886,150.177,157.692,146.086,154.829,141.177z"/>
		<path fill="#E72410" d="M147.977,145.166l-5.625,3.272c1.227,2.045,2.147,4.295,2.864,6.648c2.147-0.512,4.193-1.33,6.136-2.353
			C150.431,150.074,149.306,147.518,147.977,145.166z"/>
		<path fill="#E72410" d="M146.34,163.677c0,5.318-1.432,10.534-4.091,15.239l5.625,3.17c3.273-5.625,5.012-12.068,5.012-18.512
			c0-0.92,0-1.738-0.103-2.659c-2.045,0.92-4.193,1.636-6.341,2.147C146.34,163.37,146.34,163.574,146.34,163.677z"/>
		<path fill="#E72410" d="M170.886,182.495l5.625-3.273c-1.228-2.147-2.148-4.397-2.864-6.75c-2.148,0.511-4.091,1.33-6.034,2.353
			C168.431,177.483,169.454,180.041,170.886,182.495z"/>
		<path fill="#E72410" d="M176.613,148.745l-5.625-3.273c-3.682,6.341-5.42,13.705-5.011,21.068c2.045-0.92,4.193-1.637,6.443-2.148
			C172.42,158.87,173.954,153.552,176.613,148.745z"/>
		<path fill="#E72410" d="M153.602,176.461c-1.739,1.943-3.273,4.091-4.603,6.341l5.625,3.273c1.125-2.045,2.557-3.887,4.091-5.625
			C157.283,178.916,155.442,177.586,153.602,176.461z"/>
		<path fill="#E72410" d="M181.113,164.188c-7.466,0-14.932,2.25-21.068,6.545c1.841,1.33,3.58,2.762,5.113,4.398
			c4.705-2.966,10.228-4.5,15.955-4.5l0,0V164.188L181.113,164.188L181.113,164.188z"/>
		<path fill="#E72410" d="M137.749,164.495v6.545c2.25,0,4.5,0.205,6.75,0.716c0.614-2.045,0.921-4.295,1.125-6.443
			C142.965,164.802,140.408,164.495,137.749,164.495z"/>
		<path fill="#E72410" d="M169.863,183.006c-3.784-6.545-9.409-11.864-16.364-15.034c-0.307,2.25-0.716,4.398-1.329,6.545
			c5.011,2.659,9.205,6.648,12.068,11.659l0,0L169.863,183.006L169.863,183.006z"/>
		<path fill="#E72410" d="M153.908,152.12l-0.92,0.613c-4.602,2.659-9.92,4.091-15.341,3.989v6.443
			c6.443,0,12.886-1.637,18.511-4.909c0.92-0.511,1.841-1.125,2.762-1.739C157.283,155.393,155.442,153.858,153.908,152.12z"/>
		<path fill="#E72410" d="M165.363,150.995c1.739-1.943,3.273-4.091,4.5-6.341l-5.625-3.272c-1.125,1.943-2.455,3.784-3.989,5.42
			C161.783,148.438,163.522,149.87,165.363,150.995z"/>
		<path fill="#271800" d="M176.408,183.722h0.512c0.102,0,0.307,0.103,0.307,0.205l0,0c0,0.102-0.102,0.307-0.307,0.307
			c0,0,0,0-0.103,0h-0.511v-0.511H176.408z M176.408,184.438h0.512c0.102,0,0.205,0,0.307,0.205v0.103c0,0.102,0,0.307,0,0.409
			h0.307l0,0c-0.102,0-0.102-0.102-0.102-0.204v-0.307c0-0.102-0.102-0.307-0.205-0.307c0.103-0.103,0.205-0.205,0.205-0.409
			s-0.205-0.409-0.409-0.409c0,0,0,0-0.102,0h-0.716v1.534h0.204V184.438L176.408,184.438z"/>
		<path fill="#271800" d="M175.283,184.336c0,0.818,0.716,1.534,1.534,1.534s1.534-0.716,1.534-1.534
			c0-0.818-0.716-1.534-1.534-1.534C175.897,182.802,175.283,183.518,175.283,184.336L175.283,184.336z M175.488,184.336
			c0-0.716,0.511-1.33,1.228-1.33c0.716,0,1.33,0.511,1.33,1.227c0,0.716-0.512,1.33-1.228,1.33l0,0
			C175.999,185.563,175.488,185.052,175.488,184.336L175.488,184.336z"/>
		<path fill="#271800" d="M196.25,150.893h-3.068v10.739h-2.659v-10.739h-3.17v-2.147h9.307L196.25,150.893z"/>
		<path fill="#271800" d="M204.022,161.733l-0.92-3.068h-3.784l-0.92,3.068h-2.659l4.193-12.988h2.761l4.091,12.988H204.022
			L204.022,161.733z M201.772,153.858c-0.102-0.613-0.511-2.25-0.511-2.25l-0.614,2.455c-0.205,0.92-0.409,1.534-0.716,2.353h2.557
			C202.488,156.518,202.079,155.086,201.772,153.858z"/>
		<path fill="#271800" d="M208.113,161.631v-12.989h2.659v12.989H208.113z"/>
		<path fill="#271800" d="M235.42,161.631l-0.92-3.068h-3.784l-0.92,3.068h-2.659l4.193-13.091h2.761l4.091,12.988L235.42,161.631
			L235.42,161.631z M233.17,153.858l-0.512-2.25c0,0-0.409,1.534-0.613,2.455s-0.409,1.534-0.716,2.353h2.557
			C233.886,156.416,233.477,155.086,233.17,153.858L233.17,153.858z"/>
		<path fill="#271800" d="M245.852,161.631l-2.25-4.909c-0.716-1.534-1.534-3.375-1.739-4.193c0.103,1.023,0.103,2.557,0.103,3.682
			l0.102,5.522h-2.455v-13.091h2.864l2.455,5.114c0.511,1.227,1.023,2.352,1.432,3.682c-0.102-1.022-0.204-2.659-0.204-3.58v-5.216
			h2.455v12.989H245.852L245.852,161.631z"/>
		<path fill="#271800" d="M190.522,179.222v-13.091h7.364l-0.307,2.148h-4.398v2.966h3.682v2.147h-3.682v3.58h4.909v2.25H190.522
			L190.522,179.222z"/>
		<path fill="#271800" d="M206.375,179.12l-2.353-4.603l-2.25,4.603h-3.17l4.091-6.955l-3.477-6.034h3.17l1.739,3.477l1.738-3.477
			h3.17l-3.477,5.932l3.989,7.057H206.375L206.375,179.12z"/>
		<path fill="#271800" d="M215.579,179.325c-1.637,0.102-3.17-0.614-4.193-1.739c-1.125-1.33-1.636-2.966-1.534-4.603
			c0-1.432,0.205-2.761,0.92-3.988c0.92-1.841,2.864-2.966,4.909-2.966c1.228,0,2.352,0.307,3.273,1.023l-1.228,1.534
			c-0.614-0.512-1.33-0.716-2.045-0.716c-0.92,0-1.739,0.409-2.25,1.125c-0.614,1.022-0.818,2.147-0.716,3.375
			c-0.103,1.227,0.102,2.352,0.511,3.477c0.511,0.92,1.432,1.534,2.455,1.432c0.818,0,1.636-0.307,2.25-0.818l1.227,1.534
			C218.136,178.916,216.909,179.427,215.579,179.325z"/>
		<path fill="#271800" d="M220.795,179.12v-12.989h7.363l-0.307,2.148h-4.397v2.966h3.682v2.147h-3.682v3.58h4.909v2.25h-7.568
			V179.12z"/>
		<path fill="#271800" d="M237.158,179.12h-6.852v-13.091h2.659v10.739h4.602L237.158,179.12z"/>
		<path fill="#271800" d="M246.056,179.12h-6.852v-13.091h2.659v10.739h4.603L246.056,179.12z"/>
		<path fill="#271800" d="M248.102,179.12v-13.091h7.364l-0.307,2.148h-4.397v2.966h3.682v2.148h-3.682v3.477h4.909v2.25h-7.568
			V179.12z"/>
		<path fill="#271800" d="M263.852,179.018l-2.25-4.909c-0.716-1.534-1.534-3.477-1.738-4.193c0.102,1.022,0.102,2.557,0.102,3.682
			l0.102,5.523h-2.454v-13.091h2.863l2.455,5.216c0.614,1.227,1.023,2.352,1.432,3.682c-0.103-1.022-0.205-2.659-0.205-3.58v-5.318
			h2.455v13.091h-2.659L263.852,179.018z"/>
		<path fill="#271800" d="M274.692,179.222c-1.636,0.103-3.17-0.614-4.193-1.739c-1.125-1.33-1.636-2.966-1.534-4.602
			c0-1.432,0.205-2.761,0.92-3.989c0.92-1.841,2.864-2.966,4.909-2.966c1.125,0,2.352,0.307,3.272,1.023l-1.125,1.738
			c-0.613-0.511-1.329-0.716-2.045-0.716c-0.92,0-1.739,0.409-2.25,1.125c-0.511,1.023-0.818,2.148-0.716,3.375
			c-0.102,1.228,0.103,2.353,0.511,3.478c0.512,0.92,1.432,1.432,2.455,1.432c0.818,0,1.637-0.307,2.25-0.818l1.228,1.534
			C277.352,178.813,276.022,179.325,274.692,179.222z"/>
		<path fill="#271800" d="M280.011,179.018v-12.989h7.364l-0.307,2.148h-4.397v2.966h3.58v2.148h-3.682v3.375h4.909v2.352H280.011
			L280.011,179.018z"/>
		<path fill="#271800" d="M224.783,161.733h-2.761l-1.227-5.318c-0.307-1.841-0.614-4.091-0.716-4.5
			c-0.103,0.409-0.409,2.761-0.614,4.602l-1.228,5.216h-2.863l-3.068-13.091h2.557l1.023,5.114c0.511,2.455,1.023,5.42,1.023,5.42
			c0.102-0.614,0.511-3.58,0.818-5.42l1.023-5.114h2.659l1.125,5.728c0.204,1.227,0.716,4.704,0.716,4.704
			c0.102-0.409,0.613-4.193,0.92-5.42l1.022-5.011h2.557L224.783,161.733z"/>
	</g>
</g>
</svg>
