<?xml version="1.0" encoding="utf-8"?>
<!-- Generator: Adobe Illustrator 25.3.1, SVG Export Plug-In . SVG Version: 6.00 Build 0)  -->
<svg version="1.1" id="レイヤー_1" xmlns="http://www.w3.org/2000/svg" xmlns:xlink="http://www.w3.org/1999/xlink" x="0px"
	 y="0px" viewBox="0 0 74 60" style="enable-background:new 0 0 74 60;" xml:space="preserve">
<style type="text/css">
	.st0{clip-path:url(#SVGID_2_);}
	.st1{fill:#231815;}
</style>
<g>
	<defs>
		<rect id="SVGID_1_" x="13" y="14" width="45.4" height="31.9"/>
	</defs>
	<clipPath id="SVGID_2_">
		<use xlink:href="#SVGID_1_"  style="overflow:visible;"/>
	</clipPath>
	<g class="st0">
		<path class="st1" d="M13,30.1c0-8.8,7.2-16.4,17.8-16.1v5.1c-7.5-0.6-12.9,4.9-12.9,11c0,6,4.6,11.1,12.8,11.1V46
			C19.4,45.9,13,38.7,13,30.1z"/>
		<path class="st1" d="M40.6,30.1c0-8.8,7.2-16.4,17.8-16.1v5.1c-6.5-0.5-11.3,3.5-12.6,8.5h9.3v4.9h-9.3c1.1,4.9,5.6,8.6,12.6,8.6
			v4.8C47,45.9,40.6,38.7,40.6,30.1z"/>
	</g>
</g>
</svg>
