<svg id="Group_3559" data-name="Group 3559" xmlns="http://www.w3.org/2000/svg" width="240" height="61.775" viewBox="0 0 240 61.775">
  <path id="Path_679" data-name="Path 679" d="M96.576,263.705l1.607-4.018H78.93s-3.94.29-5.771,5.6-3.683,10.046-3.683,10.046a2.535,2.535,0,0,0,2.679,3.327c3.549.067,19,0,19,0l1.708-3.706H77.59s-.653.05-.218-1.038,3.3-9.192,3.3-9.192.3-1.055,1.172-1.105S96.576,263.705,96.576,263.705Z" transform="translate(-66.394 -238.115)" fill="#31349f"/>
  <path id="Path_680" data-name="Path 680" d="M121.817,259.688h5.938l-7.01,19.2h-5.938Z" transform="translate(-87.483 -238.115)" fill="#31349f"/>
  <path id="Path_681" data-name="Path 681" d="M135.14,270.5l3.181-2.813h5.96s2.478.134,2.176,1.976-4.42,12.743-4.42,12.743l-5.458.193,4.052-10.559s.67-1.406-.737-1.473S135.14,270.5,135.14,270.5Z" transform="translate(-96.922 -241.828)" fill="#31349f"/>
  <path id="Path_682" data-name="Path 682" d="M159.371,267.687h5.581l-3.75,10.09s-.29,1.139.558,1.161,4.711,0,4.711,0a1.6,1.6,0,0,0,1.428-1.183c.4-1.183,3.75-10.068,3.75-10.068h5.269l-3.884,11.073a5.822,5.822,0,0,1-4.666,3.616,48.659,48.659,0,0,1-9.42,0s-4.2-.223-3.326-3.773S159.371,267.687,159.371,267.687Z" transform="translate(-106.374 -241.828)" fill="#31349f"/>
  <path id="Path_683" data-name="Path 683" d="M196.445,282.561l-5.8-.268,4.219-11.53a4.873,4.873,0,0,1,4.387-3.114c3.349-.1,17.58,0,17.58,0s4.32,0,2.947,4.219-3.918,10.693-3.918,10.693H210.1l3.616-9.989s.5-1.351-.7-1.373-12-.05-12-.05-.737-.168-.988.887S196.445,282.561,196.445,282.561Z" transform="translate(-122.686 -241.79)" fill="#31349f"/>
  <path id="Path_684" data-name="Path 684" d="M213.353,276.292l4.989-.167-3.683,10.247H209.7Z" transform="translate(-131.535 -245.746)" fill="#31349f"/>
  <path id="Path_685" data-name="Path 685" d="M437.709,267.424c-5.19-.033-11.72,0-11.72,0a3.249,3.249,0,0,0-3.181,2.478c-.7,2.579-3.549,10.079-3.549,10.079s-1.172,2.243,2.98,2.277,13.294,0,13.294,0l2.779-2.579-11.268-.017s-2.193-.435-.385-2.327h10.247a3.459,3.459,0,0,0,3.115-2.511c.7-2.445,1.138-3.817,1.138-3.817S442.9,267.458,437.709,267.424Zm-1.323,3.7c-.268.619-1.607,2.929-1.607,2.929a1.075,1.075,0,0,1-1.139.519c-.9-.05-5.809-.067-5.809-.067l1.44-4.069h6.781S436.654,270.5,436.386,271.125Z" transform="translate(-228.747 -241.7)" fill="#04b69e"/>
  <path id="Path_686" data-name="Path 686" d="M64.789,300.771l-.982,1.875H270.794l.721-1.875Z" transform="translate(-63.807 -257.187)" fill="#31349f"/>
  <path id="Path_687" data-name="Path 687" d="M285.125,259.683l-18.7-.246-6.664,19.188,7.233.123,2.746-6.72s10,.09,11.742-.023a6.8,6.8,0,0,0,4.308-2.768,15.93,15.93,0,0,0,2.322-6.005C288.965,259.549,285.125,259.683,285.125,259.683Zm-4.218,4.815s-.2,2.953-2.21,3.11-7.613,0-7.613,0v-.178l1.429-3.84h7.725A.688.688,0,0,1,280.906,264.5Z" transform="translate(-154.776 -237.999)" fill="#04b69e"/>
  <path id="Path_688" data-name="Path 688" d="M324.135,240.593s13.662-5.982,12.947,4.286c0,0-.625,6.429-10.715,12.948,0,0-4.933,3.527-10.224,3.058,0,0-5.023-1.072-3.817-6.63a22.259,22.259,0,0,1,2.411-5.559,25.941,25.941,0,0,1,7.077-7.746s10.938-7.858,19.109-10.671,23.306-6.3,32.28-6.429,16.877-1.027,26.655,2.724,13.038,6.876,13.8,12.1a10.029,10.029,0,0,1-3.839,9.242s6.831-1.92,6.429-11.117c0,0,.133-6.787-7.323-11.341s-17.011-6.161-27.368-6.027c-11.727.152-14.278,1.432-21.029,2.545a113.619,113.619,0,0,0-20.047,6.519c-10.625,4.6-15.715,7.679-23.4,14.376s-9.466,11.3-10.225,13.3-2.545,8.215,3.974,10.046,11.608-1.652,13.26-2.411,12.947-8.215,15.983-15.894c0,0,3.26-7.59-4.409-9.9A13.542,13.542,0,0,0,324.135,240.593Z" transform="translate(-176.261 -219.423)" fill="#04b69e"/>
  <path id="Path_689" data-name="Path 689" d="M372.118,267.812h5.76L374.4,277.925s-.38,1.116.335,1.116h12.189a1.589,1.589,0,0,0,1.651-1.384c.358-1.518,3.26-9.845,3.26-9.845h5.8L393.415,279.5a6.07,6.07,0,0,1-4.722,3.215c-3.416.368-17.647,0-17.647,0s-4.018-.369-2.512-4.789S372.118,267.812,372.118,267.812Z" transform="translate(-205.112 -241.887)" fill="#04b69e"/>
  <path id="Path_690" data-name="Path 690" d="M391.353,267.438h5.123l-3.683,10.347H387.7Z" transform="translate(-214.168 -241.713)" fill="#04b69e"/>
  <path id="Path_691" data-name="Path 691" d="M455.225,286.859l5.492-16.073s1.428-3.349,3.482-3.349h13.036l-1.428,3.617-7.278-.089s-1.83-.145-2.534,2.6-4.554,13.294-4.554,13.294Z" transform="translate(-245.514 -241.713)" fill="#04b69e"/>
  <g id="Group_3481" data-name="Group 3481" transform="translate(0 51.782)">
    <path id="Path_692" data-name="Path 692" d="M70.891,322.554a1.982,1.982,0,0,1-2.117,1.743,2.131,2.131,0,0,1-1.651-.683,3.668,3.668,0,0,1-.792-2.555,3.946,3.946,0,0,1,.615-2.345,2.1,2.1,0,0,1,1.828-.887,1.88,1.88,0,0,1,2.007,1.715l.054.261,2.356-.483-.069-.272a3.705,3.705,0,0,0-1.347-2.085,4.859,4.859,0,0,0-3.014-.892,5.017,5.017,0,0,0-3.4,1.144,4.869,4.869,0,0,0-1.559,3.861,5.01,5.01,0,0,0,1.2,3.5,4.838,4.838,0,0,0,3.75,1.481c2.344,0,3.831-.976,4.419-2.9l.082-.266-2.309-.6Z" transform="translate(-63.807 -316.072)" fill="#31349f"/>
    <path id="Path_693" data-name="Path 693" d="M89.137,320.093H85.174v-3.711H82.78v9.649h2.395v-4.113h3.963v4.113h2.4v-9.649h-2.4Z" transform="translate(-72.615 -316.216)" fill="#31349f"/>
    <path id="Path_694" data-name="Path 694" d="M108.558,322.592c0,1.27-.64,1.861-2.015,1.861s-2.015-.592-2.015-1.861v-6.21h-2.409v6.233a3.257,3.257,0,0,0,1.07,2.576A4.916,4.916,0,0,0,106.5,326.2a5.163,5.163,0,0,0,2.977-.776,3.205,3.205,0,0,0,1.365-2.806v-6.233h-2.286Z" transform="translate(-81.592 -316.216)" fill="#31349f"/>
    <path id="Path_695" data-name="Path 695" d="M127.641,321.246q-.17.56-.4,1.42-.152.567-.258.95c-.184-.775-.4-1.576-.641-2.389l-1.414-4.844h-3.517v9.649H123.6v-4.85c0-.651,0-1.3-.014-1.938.314,1.09.5,1.728.565,1.935l1.477,4.853h2.588l1.517-4.9c.16-.489.344-1.107.551-1.848q-.012,1.181-.012,1.879v4.873H132.6v-9.649h-3.523Z" transform="translate(-90.547 -316.216)" fill="#31349f"/>
    <path id="Path_696" data-name="Path 696" d="M148.129,316.382h-4.077v9.649h2.408V322.2h1.553a5.727,5.727,0,0,0,2.958-.658,2.526,2.526,0,0,0,1.276-2.287C152.247,317.35,150.862,316.382,148.129,316.382ZM146.46,318.1h1.567c1.605,0,1.791.666,1.791,1.167,0,.521-.193,1.213-1.859,1.213h-1.5Z" transform="translate(-101.059 -316.216)" fill="#31349f"/>
    <path id="Path_697" data-name="Path 697" d="M165.3,316.093a4.616,4.616,0,0,0-4.9,5.005,5.063,5.063,0,0,0,1.182,3.493,4.727,4.727,0,0,0,3.7,1.483,4.615,4.615,0,0,0,4.9-5.005,5.072,5.072,0,0,0-1.182-3.5A4.734,4.734,0,0,0,165.3,316.093Zm1.778,7.342a2.014,2.014,0,0,1-1.778.884,2.057,2.057,0,0,1-1.622-.674,3.758,3.758,0,0,1-.754-2.558,4.083,4.083,0,0,1,.591-2.359,2.26,2.26,0,0,1,3.4-.2,3.772,3.772,0,0,1,.747,2.564A4.1,4.1,0,0,1,167.082,323.435Z" transform="translate(-108.65 -316.082)" fill="#31349f"/>
    <path id="Path_698" data-name="Path 698" d="M190.391,320.862q-.117.616-.26,1.5c-.04.253-.076.481-.108.685-.107-.7-.234-1.413-.379-2.126l-.947-4.543h-2.839l-.92,4.4c-.105.481-.237,1.232-.391,2.23,0,.023-.007.046-.011.069-.113-.734-.243-1.512-.386-2.325l-.815-4.377H180.87l2.222,9.649h2.739l.919-4.5c.106-.494.252-1.3.435-2.385.206,1.235.352,2.051.436,2.432l.977,4.454h2.735l2.286-9.649h-2.357Z" transform="translate(-118.151 -316.216)" fill="#31349f"/>
    <path id="Path_699" data-name="Path 699" d="M210.768,321.838h3.966v-1.79h-3.966v-1.875h5.25v-1.79H208.36v9.649h7.767v-1.79h-5.359Z" transform="translate(-130.912 -316.216)" fill="#31349f"/>
    <path id="Path_700" data-name="Path 700" d="M232.532,320.843a2.319,2.319,0,0,0,.705-1.716c0-1.822-1.376-2.745-4.091-2.745H225v9.649h2.368v-4.073h1.268l.325-.008,2.185,4.08h2.639l-2.554-4.425A3.3,3.3,0,0,0,232.532,320.843Zm-5.163-2.74h1.7c1.581,0,1.764.6,1.764,1.046,0,.471-.192,1.1-1.846,1.1h-1.614Z" transform="translate(-138.638 -316.216)" fill="#31349f"/>
    <path id="Path_701" data-name="Path 701" d="M256.16,321.246q-.171.56-.4,1.42-.153.567-.258.95c-.184-.775-.4-1.576-.64-2.389l-1.414-4.844h-3.517v9.649h2.191v-4.85c0-.651,0-1.3-.014-1.938.314,1.09.5,1.728.565,1.935l1.478,4.853h2.588l1.517-4.9c.16-.489.345-1.107.55-1.848q-.011,1.181-.012,1.879v4.873h2.327v-9.649h-3.523Z" transform="translate(-150.209 -316.216)" fill="#31349f"/>
    <path id="Path_702" data-name="Path 702" d="M275.76,316.382l-3.5,9.649h2.35l.931-2.679h2.933l.917,2.679h2.535l-3.523-9.649Zm1.687,3.766.511,1.494h-1.905l.474-1.507c.153-.455.311-.971.474-1.541C277.233,319.424,277.379,319.934,277.446,320.149Z" transform="translate(-160.576 -316.216)" fill="#31349f"/>
    <path id="Path_703" data-name="Path 703" d="M297.307,322.554a1.982,1.982,0,0,1-2.117,1.743,2.13,2.13,0,0,1-1.651-.683,3.665,3.665,0,0,1-.792-2.555,3.947,3.947,0,0,1,.615-2.345,2.1,2.1,0,0,1,1.828-.887,1.881,1.881,0,0,1,2.008,1.715l.054.261,2.355-.483-.069-.272a3.709,3.709,0,0,0-1.347-2.085,4.862,4.862,0,0,0-3.015-.892,5.016,5.016,0,0,0-3.395,1.144,4.867,4.867,0,0,0-1.559,3.861,5.011,5.011,0,0,0,1.2,3.5,4.837,4.837,0,0,0,3.749,1.481c2.344,0,3.831-.976,4.42-2.9l.081-.266-2.309-.6Z" transform="translate(-168.916 -316.072)" fill="#31349f"/>
    <path id="Path_704" data-name="Path 704" d="M315.968,320.093h-3.962v-3.711h-2.4v9.649h2.4v-4.113h3.962v4.113h2.4v-9.649h-2.4Z" transform="translate(-177.916 -316.216)" fill="#31349f"/>
    <rect id="Rectangle_207" data-name="Rectangle 207" width="2.429" height="9.648" transform="translate(142.306 0.166)" fill="#31349f"/>
    <path id="Path_705" data-name="Path 705" d="M343.961,320.475c0,.692.022,1.453.067,2.271-.315-.734-.668-1.466-1.054-2.188l-2.318-4.176h-3.25v9.649h2.259v-4.684c0-.855-.017-1.669-.049-2.432.375.755.774,1.519,1.193,2.281l2.691,4.835h2.72v-9.649h-2.26Z" transform="translate(-190.82 -316.216)" fill="#31349f"/>
    <path id="Path_706" data-name="Path 706" d="M359.723,321.838h3.967v-1.79h-3.967v-1.875h5.25v-1.79h-7.659v9.649h7.768v-1.79h-5.359Z" transform="translate(-200.061 -316.216)" fill="#31349f"/>
    <path id="Path_707" data-name="Path 707" d="M381.305,320.843a2.318,2.318,0,0,0,.7-1.716c0-1.822-1.376-2.745-4.091-2.745h-4.145v9.649h2.368v-4.073h1.268l.325-.008,2.185,4.08h2.639L380,321.605A3.3,3.3,0,0,0,381.305,320.843Zm-5.164-2.74h1.7c1.581,0,1.764.6,1.764,1.046,0,.471-.191,1.1-1.845,1.1h-1.615Z" transform="translate(-207.702 -316.216)" fill="#31349f"/>
    <path id="Path_708" data-name="Path 708" d="M394.512,319.879c-.041.061-.083.125-.125.192-.049-.082-.085-.14-.107-.175l-2.225-3.514H389.33l3.7,5.692v3.957h2.429v-3.956l3.762-5.693h-2.561Z" transform="translate(-214.924 -316.216)" fill="#31349f"/>
    <path id="Path_709" data-name="Path 709" d="M421.357,322.554a1.982,1.982,0,0,1-2.117,1.743,2.132,2.132,0,0,1-1.652-.683,3.666,3.666,0,0,1-.791-2.555,3.944,3.944,0,0,1,.615-2.345,2.1,2.1,0,0,1,1.828-.887,1.88,1.88,0,0,1,2.007,1.715l.054.261,2.355-.483-.069-.271a3.7,3.7,0,0,0-1.347-2.085,4.857,4.857,0,0,0-3.014-.892,5.014,5.014,0,0,0-3.395,1.144,4.868,4.868,0,0,0-1.56,3.861,5.01,5.01,0,0,0,1.2,3.5,4.837,4.837,0,0,0,3.75,1.481c2.344,0,3.83-.976,4.418-2.9l.081-.266-2.308-.6Z" transform="translate(-226.503 -316.072)" fill="#31349f"/>
    <path id="Path_710" data-name="Path 710" d="M438.586,316.093a4.615,4.615,0,0,0-4.9,5.005,5.065,5.065,0,0,0,1.182,3.493,4.726,4.726,0,0,0,3.7,1.483,4.615,4.615,0,0,0,4.9-5.005,5.073,5.073,0,0,0-1.182-3.5A4.735,4.735,0,0,0,438.586,316.093Zm1.778,7.342a2.013,2.013,0,0,1-1.778.884,2.057,2.057,0,0,1-1.622-.674,3.759,3.759,0,0,1-.753-2.558,4.084,4.084,0,0,1,.591-2.359,2.26,2.26,0,0,1,3.4-.2,3.772,3.772,0,0,1,.747,2.564A4.1,4.1,0,0,1,440.364,323.435Z" transform="translate(-235.516 -316.082)" fill="#31349f"/>
    <path id="Path_711" data-name="Path 711" d="M462.978,320.843a2.319,2.319,0,0,0,.705-1.716c0-1.822-1.376-2.745-4.091-2.745h-4.145v9.649h2.368v-4.073h1.268l.325-.008,2.185,4.08h2.639l-2.554-4.425A3.3,3.3,0,0,0,462.978,320.843Zm-5.164-2.74h1.7c1.581,0,1.764.6,1.764,1.046,0,.471-.191,1.1-1.845,1.1h-1.615Z" transform="translate(-245.617 -316.216)" fill="#31349f"/>
    <path id="Path_712" data-name="Path 712" d="M478.457,316.382H474.38v9.649h2.408V322.2h1.553a5.727,5.727,0,0,0,2.958-.658,2.526,2.526,0,0,0,1.276-2.287C482.575,317.35,481.19,316.382,478.457,316.382Zm-1.669,1.721h1.567c1.606,0,1.791.666,1.791,1.167,0,.521-.193,1.213-1.859,1.213h-1.5Z" transform="translate(-254.406 -316.216)" fill="#31349f"/>
    <rect id="Rectangle_208" data-name="Rectangle 208" width="2.524" height="2.157" transform="translate(229.197 7.657)" fill="#31349f"/>
  </g>
</svg>
